<svg width="358" height="308" viewBox="0 0 358 308" fill="none" xmlns="http://www.w3.org/2000/svg">
<g filter="url(#filter0_d_23_84)">
<rect x="4" width="350" height="300" fill="white"/>
<path d="M46.2818 93.1594C66.0778 79.962 89.6637 74.0313 112.178 67.0625C114.42 66.3686 151.84 54.7399 151.285 57.5168C150.413 61.8767 147.457 67.0532 145.896 70.9886C141.27 82.6542 137.174 94.599 131.116 105.63C126.786 113.515 120.958 120.32 117.259 128.571C114.891 133.853 113.548 141.733 121.262 138.117C147.829 125.663 174.068 112.669 201.246 101.55C208.622 98.5329 214.763 92.504 213.102 101.55C208.707 125.478 201.907 148.315 193.471 171.142C190.166 180.085 183.83 189.525 183.463 199.24C183.218 205.738 185.612 203.569 189.93 200.01C204.292 188.173 220.502 179.202 235.888 168.833C240.086 166.004 248.53 158.406 254.21 159.826C265.623 162.679 267.161 183.319 268.759 192.312C271.12 205.592 268.892 218.71 272.147 231.727" stroke="#FF3D00" stroke-opacity="0.41" stroke-width="50" stroke-linecap="round"/>
<path d="M28.91 163C28.4433 163 28.21 162.767 28.21 162.3V160.76C28.21 160.293 28.42 159.99 28.84 159.85L31.71 159.01C32.5033 158.73 33.11 158.38 33.53 157.96C33.95 157.54 34.3 157.027 34.58 156.42L53.9 111.76C54.04 111.34 54.3433 111.107 54.81 111.06L59.85 109.94C60.3167 109.847 60.5967 110.033 60.69 110.5L61.67 114.49L81.2 156.35C81.5267 157.05 81.9233 157.61 82.39 158.03C82.8567 158.45 83.3933 158.753 84 158.94L86.73 159.85C87.15 160.037 87.36 160.363 87.36 160.83V162.3C87.36 162.767 87.1267 163 86.66 163H61.39C60.97 163 60.76 162.767 60.76 162.3V160.76C60.76 160.387 60.97 160.107 61.39 159.92L65.38 158.94C66.78 158.567 67.5967 158.077 67.83 157.47C68.0633 156.863 67.9233 156 67.41 154.88L51.73 119.67L58.38 115.68L42.07 154.67C41.51 156.023 41.3933 156.98 41.72 157.54C42.0933 158.1 42.8633 158.52 44.03 158.8L48.58 159.92C49.0467 160.06 49.28 160.363 49.28 160.83V162.3C49.28 162.767 49.0467 163 48.58 163H28.91ZM42.98 141.51C47.46 141.79 52.0333 141.93 56.7 141.93C61.4133 141.883 65.9867 141.743 70.42 141.51V147.04C65.9867 147.32 61.4133 147.46 56.7 147.46C52.0333 147.46 47.46 147.343 42.98 147.11V141.51ZM119.319 141.23C119.319 139.457 118.806 138.103 117.779 137.17C116.753 136.237 115.283 135.77 113.369 135.77C112.063 135.77 110.663 136.073 109.169 136.68C107.723 137.287 106.299 138.127 104.899 139.2L103.849 137.38C104.923 135.42 106.276 133.693 107.909 132.2C109.543 130.66 111.363 129.47 113.369 128.63C115.376 127.79 117.476 127.37 119.669 127.37C123.449 127.37 126.179 128.373 127.859 130.38C129.539 132.34 130.379 135.443 130.379 139.69V163H119.319V141.23ZM94.5394 163V141.23H105.669V163H94.5394ZM91.3194 163C90.8994 163 90.6894 162.767 90.6894 162.3V160.97C90.6894 160.503 90.8994 160.2 91.3194 160.06L92.7894 159.64C93.6294 159.313 94.1194 159.057 94.2594 158.87C94.446 158.637 94.5394 158.123 94.5394 157.33V150.4H105.669V157.19C105.669 158.03 105.739 158.567 105.879 158.8C106.066 159.033 106.533 159.267 107.279 159.5L110.079 160.13C110.499 160.27 110.709 160.573 110.709 161.04V162.3C110.709 162.767 110.476 163 110.009 163H91.3194ZM116.099 163C115.633 163 115.399 162.767 115.399 162.3V160.97C115.399 160.503 115.633 160.2 116.099 160.06L117.569 159.64C118.363 159.313 118.853 159.057 119.039 158.87C119.226 158.637 119.319 158.123 119.319 157.33V150.4H130.379V157.19C130.379 158.03 130.449 158.567 130.589 158.8C130.776 159.033 131.266 159.267 132.059 159.5L134.859 160.13C135.279 160.27 135.489 160.573 135.489 161.04V162.3C135.489 162.767 135.256 163 134.789 163H116.099ZM94.5394 141.23V130.66L95.8694 133.81L90.5494 132.62C90.0827 132.527 89.8494 132.247 89.8494 131.78V130.17C89.8494 129.75 90.0827 129.47 90.5494 129.33L102.869 127.44C103.663 127.347 104.199 127.393 104.479 127.58C104.806 127.767 104.969 128.187 104.969 128.84V136.61L105.669 137.73V141.23H94.5394ZM152.445 163.84C148.805 163.84 146.168 162.883 144.535 160.97C142.901 159.057 142.085 156 142.085 151.8V130.59L142.505 128.21V121.28C142.505 120.86 142.738 120.58 143.205 120.44C143.951 120.207 144.885 120.02 146.005 119.88C147.171 119.693 148.338 119.53 149.505 119.39C150.718 119.25 151.721 119.18 152.515 119.18C152.981 119.273 153.215 119.53 153.215 119.95V151.52C153.215 153.527 153.681 154.95 154.615 155.79C155.548 156.63 157.135 157.05 159.375 157.05C159.888 157.05 160.471 157.027 161.125 156.98C161.778 156.887 162.478 156.77 163.225 156.63C163.645 156.537 163.901 156.723 163.995 157.19L164.135 159.15C164.228 159.57 164.088 159.943 163.715 160.27C162.921 160.923 161.871 161.53 160.565 162.09C159.258 162.603 157.905 163.023 156.505 163.35C155.105 163.677 153.751 163.84 152.445 163.84ZM138.095 132.9C137.675 132.9 137.511 132.667 137.605 132.2L138.165 129.54C138.258 129.12 138.538 128.863 139.005 128.77L142.505 128.21H158.535L163.715 127.93C164.181 127.837 164.415 128.047 164.415 128.56C164.461 129.167 164.461 129.797 164.415 130.45C164.368 131.057 164.275 131.663 164.135 132.27C163.995 132.69 163.691 132.9 163.225 132.9H138.095ZM237.004 115.05C236.351 115.237 235.907 115.47 235.674 115.75C235.441 116.03 235.324 116.59 235.324 117.43V162.65C235.324 163.117 235.091 163.35 234.624 163.35H230.984C230.517 163.35 230.121 163.163 229.794 162.79L194.094 119.6L199.624 114.07V156.28C199.624 156.98 199.717 157.47 199.904 157.75C200.137 158.03 200.627 158.31 201.374 158.59L206.204 159.85C206.624 160.083 206.834 160.41 206.834 160.83V162.3C206.834 162.767 206.601 163 206.134 163H185.834C185.367 163 185.134 162.767 185.134 162.3V160.76C185.134 160.34 185.367 160.06 185.834 159.92L191.014 158.52C191.621 158.333 192.041 158.1 192.274 157.82C192.554 157.54 192.694 156.98 192.694 156.14V117.71C192.694 116.87 192.531 116.263 192.204 115.89C191.877 115.47 191.387 115.167 190.734 114.98L185.764 113.65C185.344 113.463 185.134 113.16 185.134 112.74V111.27C185.134 110.803 185.367 110.57 185.834 110.57H200.534C201.001 110.57 201.374 110.733 201.654 111.06L233.504 149.63L228.324 157.89V117.29C228.324 116.59 228.207 116.1 227.974 115.82C227.787 115.493 227.297 115.213 226.504 114.98L221.814 113.72C221.394 113.487 221.184 113.16 221.184 112.74V111.27C221.184 110.803 221.417 110.57 221.884 110.57H242.184C242.604 110.57 242.814 110.803 242.814 111.27V112.81C242.814 113.23 242.604 113.51 242.184 113.65L237.004 115.05ZM252.914 163V110.57H264.744V155.3C264.744 156.14 264.907 156.723 265.234 157.05C265.56 157.33 266.074 157.47 266.774 157.47H280.494C281.334 157.47 281.987 157.33 282.454 157.05C282.967 156.723 283.41 156.28 283.784 155.72L287.774 149.28C288.054 148.907 288.427 148.79 288.894 148.93L290.924 149.49C291.344 149.63 291.53 149.933 291.484 150.4L289.874 161.11C289.78 161.763 289.617 162.277 289.384 162.65C289.197 162.977 288.824 163.163 288.264 163.21C287.704 163.257 286.817 163.257 285.604 163.21L281.614 163H252.914ZM246.264 163C245.797 163 245.564 162.767 245.564 162.3V160.76C245.564 160.34 245.797 160.06 246.264 159.92L251.164 158.59C251.957 158.31 252.447 158.03 252.634 157.75C252.82 157.47 252.914 156.98 252.914 156.28V148.51H264.744V163H246.264ZM245.564 111.27C245.564 110.803 245.797 110.57 246.264 110.57H271.534C272 110.57 272.234 110.803 272.234 111.27V112.74C272.234 113.16 272.024 113.463 271.604 113.65L266.354 115.05C265.747 115.237 265.327 115.47 265.094 115.75C264.86 116.03 264.744 116.59 264.744 117.43V125.06H252.914V117.29C252.914 116.59 252.82 116.1 252.634 115.82C252.447 115.493 251.957 115.213 251.164 114.98L246.264 113.65C245.797 113.51 245.564 113.23 245.564 112.81V111.27ZM303.021 163V110.57H314.851V163H303.021ZM296.371 163C295.905 163 295.671 162.767 295.671 162.3V160.76C295.671 160.34 295.905 160.06 296.371 159.92L301.271 158.59C302.065 158.31 302.555 158.03 302.741 157.75C302.928 157.47 303.021 156.98 303.021 156.28V148.51H314.851V155.86C314.851 156.653 314.968 157.19 315.201 157.47C315.435 157.703 315.878 157.89 316.531 158.03L324.721 159.92C325.188 160.06 325.421 160.363 325.421 160.83V162.3C325.421 162.767 325.188 163 324.721 163H296.371ZM295.671 111.27C295.671 110.803 295.905 110.57 296.371 110.57H314.851V125.06H303.021V117.29C303.021 116.59 302.928 116.1 302.741 115.82C302.555 115.493 302.065 115.213 301.271 114.98L296.371 113.65C295.905 113.51 295.671 113.23 295.671 112.81V111.27ZM314.851 136.89C315.505 136.937 316.205 136.983 316.951 137.03C317.698 137.077 318.445 137.1 319.191 137.1C322.785 137.1 325.445 136.213 327.171 134.44C328.898 132.667 329.761 129.96 329.761 126.32C329.761 119.507 326.448 116.1 319.821 116.1H314.851V110.57H321.081C327.568 110.57 332.631 111.97 336.271 114.77C339.911 117.523 341.731 121.373 341.731 126.32C341.731 131.5 340.028 135.513 336.621 138.36C333.215 141.207 328.408 142.63 322.201 142.63C320.988 142.63 319.751 142.607 318.491 142.56C317.278 142.467 316.065 142.35 314.851 142.21V136.89Z" fill="#643F3F"/>
<path d="M52.5461 218.105L43.3437 221.922L43.9538 228.895" stroke="#643F3F"/>
<path d="M45 196.5L39 188.5L37.5 191M49 193.5L43.5 185.5H47" stroke="#643F3F"/>
<path d="M62 205L69.5 200L74 205" stroke="#643F3F"/>
<path d="M58.544 225.441L50.1442 230.798L51.9559 237.559" stroke="#643F3F"/>
<path d="M69.5068 219.797L78.2646 217.664L80.7831 223.901" stroke="#643F3F"/>
<path d="M66 210.924L74.2543 207.302L77.8177 213.008" stroke="#643F3F"/>
<g filter="url(#filter1_d_23_84)">
<ellipse cx="51.4633" cy="201.058" rx="7.46076" ry="8.93233" transform="rotate(-25 51.4633 201.058)" fill="#EA3800"/>
<path d="M57.7719 198.116C59.7773 202.416 58.4381 207.109 55.0269 208.7C51.6158 210.291 47.1601 208.3 45.1547 203.999C43.1493 199.699 44.4885 195.006 47.8996 193.415C51.3108 191.825 55.7665 193.815 57.7719 198.116Z" stroke="#643F3F"/>
</g>
<g filter="url(#filter2_d_23_84)">
<ellipse cx="58" cy="212.5" rx="8" ry="11.5" transform="rotate(-25 58 212.5)" fill="#EA3800"/>
<path d="M64.7973 209.33C66.1016 212.128 66.4839 215.008 66.0708 217.394C65.6573 219.782 64.4612 221.624 62.6488 222.469C60.8364 223.315 58.6559 223.046 56.5611 221.828C54.4682 220.611 52.507 218.467 51.2027 215.67C49.8983 212.873 49.5161 209.992 49.9292 207.606C50.3426 205.219 51.5388 203.376 53.3512 202.531C55.1636 201.686 57.3441 201.954 59.4389 203.172C61.5318 204.389 63.493 206.533 64.7973 209.33Z" stroke="#643F3F"/>
</g>
<path d="M72.7973 223.33C74.1016 226.128 74.4839 229.008 74.0708 231.394C73.6573 233.782 72.4612 235.624 70.6488 236.469C68.8364 237.315 66.6559 237.046 64.5611 235.828C62.4682 234.611 60.507 232.467 59.2027 229.67C57.8983 226.873 57.5161 223.992 57.9292 221.606C58.3426 219.219 59.5388 217.376 61.3512 216.531C63.1636 215.686 65.3441 215.954 67.4389 217.172C69.5318 218.389 71.493 220.533 72.7973 223.33Z" fill="#EA3800" stroke="#643F3F"/>
<path d="M49.5 211L40 214V221" stroke="#643F3F"/>
<g filter="url(#filter3_d_23_84)">
<ellipse cx="56" cy="242.5" rx="1" ry="1.5" fill="#E06565"/>
</g>
<g filter="url(#filter4_d_23_84)">
<ellipse cx="159" cy="221.5" rx="1" ry="1.5" fill="#E06565"/>
</g>
<g filter="url(#filter5_d_23_84)">
<ellipse cx="166" cy="245.5" rx="1" ry="1.5" fill="#E06565"/>
</g>
<g filter="url(#filter6_d_23_84)">
<ellipse cx="146" cy="256.5" rx="1" ry="1.5" fill="#E06565"/>
</g>
<g filter="url(#filter7_d_23_84)">
<ellipse cx="123" cy="262.5" rx="1" ry="1.5" fill="#E06565"/>
</g>
<g filter="url(#filter8_d_23_84)">
<ellipse cx="140" cy="232.5" rx="1" ry="1.5" fill="#E06565"/>
</g>
<g filter="url(#filter9_d_23_84)">
<ellipse cx="101" cy="262.5" rx="1" ry="1.5" fill="#E06565"/>
</g>
<g filter="url(#filter10_d_23_84)">
<ellipse cx="121" cy="245.5" rx="1" ry="1.5" fill="#E06565"/>
</g>
<g filter="url(#filter11_d_23_84)">
<ellipse cx="103" cy="242.5" rx="1" ry="1.5" fill="#E06565"/>
</g>
<g filter="url(#filter12_d_23_84)">
<ellipse cx="83" cy="257.5" rx="1" ry="1.5" fill="#E06565"/>
</g>
<g filter="url(#filter13_d_23_84)">
<ellipse cx="67" cy="250.5" rx="1" ry="1.5" fill="#E06565"/>
</g>
<g filter="url(#filter14_d_23_84)">
<ellipse cx="87" cy="233.5" rx="1" ry="1.5" fill="#E06565"/>
</g>
</g>
<defs>
<filter id="filter0_d_23_84" x="0" y="0" width="358" height="308" filterUnits="userSpaceOnUse" color-interpolation-filters="sRGB">
<feFlood flood-opacity="0" result="BackgroundImageFix"/>
<feColorMatrix in="SourceAlpha" type="matrix" values="0 0 0 0 0 0 0 0 0 0 0 0 0 0 0 0 0 0 127 0" result="hardAlpha"/>
<feOffset dy="4"/>
<feGaussianBlur stdDeviation="2"/>
<feComposite in2="hardAlpha" operator="out"/>
<feColorMatrix type="matrix" values="0 0 0 0 0 0 0 0 0 0 0 0 0 0 0 0 0 0 0.25 0"/>
<feBlend mode="normal" in2="BackgroundImageFix" result="effect1_dropShadow_23_84"/>
<feBlend mode="normal" in="SourceGraphic" in2="effect1_dropShadow_23_84" result="shape"/>
</filter>
<filter id="filter1_d_23_84" x="39.7178" y="192.367" width="23.491" height="25.3804" filterUnits="userSpaceOnUse" color-interpolation-filters="sRGB">
<feFlood flood-opacity="0" result="BackgroundImageFix"/>
<feColorMatrix in="SourceAlpha" type="matrix" values="0 0 0 0 0 0 0 0 0 0 0 0 0 0 0 0 0 0 127 0" result="hardAlpha"/>
<feOffset dy="4"/>
<feGaussianBlur stdDeviation="2"/>
<feComposite in2="hardAlpha" operator="out"/>
<feColorMatrix type="matrix" values="0 0 0 0 0 0 0 0 0 0 0 0 0 0 0 0 0 0 0.25 0"/>
<feBlend mode="normal" in2="BackgroundImageFix" result="effect1_dropShadow_23_84"/>
<feBlend mode="normal" in="SourceGraphic" in2="effect1_dropShadow_23_84" result="shape"/>
</filter>
<filter id="filter2_d_23_84" x="45.2704" y="201.54" width="25.4592" height="29.9202" filterUnits="userSpaceOnUse" color-interpolation-filters="sRGB">
<feFlood flood-opacity="0" result="BackgroundImageFix"/>
<feColorMatrix in="SourceAlpha" type="matrix" values="0 0 0 0 0 0 0 0 0 0 0 0 0 0 0 0 0 0 127 0" result="hardAlpha"/>
<feOffset dy="4"/>
<feGaussianBlur stdDeviation="2"/>
<feComposite in2="hardAlpha" operator="out"/>
<feColorMatrix type="matrix" values="0 0 0 0 0 0 0 0 0 0 0 0 0 0 0 0 0 0 0.25 0"/>
<feBlend mode="normal" in2="BackgroundImageFix" result="effect1_dropShadow_23_84"/>
<feBlend mode="normal" in="SourceGraphic" in2="effect1_dropShadow_23_84" result="shape"/>
</filter>
<filter id="filter3_d_23_84" x="52" y="238" width="10" height="11" filterUnits="userSpaceOnUse" color-interpolation-filters="sRGB">
<feFlood flood-opacity="0" result="BackgroundImageFix"/>
<feColorMatrix in="SourceAlpha" type="matrix" values="0 0 0 0 0 0 0 0 0 0 0 0 0 0 0 0 0 0 127 0" result="hardAlpha"/>
<feOffset dx="1" dy="1"/>
<feGaussianBlur stdDeviation="2"/>
<feComposite in2="hardAlpha" operator="out"/>
<feColorMatrix type="matrix" values="0 0 0 0 0 0 0 0 0 0 0 0 0 0 0 0 0 0 0.25 0"/>
<feBlend mode="normal" in2="BackgroundImageFix" result="effect1_dropShadow_23_84"/>
<feBlend mode="normal" in="SourceGraphic" in2="effect1_dropShadow_23_84" result="shape"/>
</filter>
<filter id="filter4_d_23_84" x="155" y="217" width="10" height="11" filterUnits="userSpaceOnUse" color-interpolation-filters="sRGB">
<feFlood flood-opacity="0" result="BackgroundImageFix"/>
<feColorMatrix in="SourceAlpha" type="matrix" values="0 0 0 0 0 0 0 0 0 0 0 0 0 0 0 0 0 0 127 0" result="hardAlpha"/>
<feOffset dx="1" dy="1"/>
<feGaussianBlur stdDeviation="2"/>
<feComposite in2="hardAlpha" operator="out"/>
<feColorMatrix type="matrix" values="0 0 0 0 0 0 0 0 0 0 0 0 0 0 0 0 0 0 0.25 0"/>
<feBlend mode="normal" in2="BackgroundImageFix" result="effect1_dropShadow_23_84"/>
<feBlend mode="normal" in="SourceGraphic" in2="effect1_dropShadow_23_84" result="shape"/>
</filter>
<filter id="filter5_d_23_84" x="162" y="241" width="10" height="11" filterUnits="userSpaceOnUse" color-interpolation-filters="sRGB">
<feFlood flood-opacity="0" result="BackgroundImageFix"/>
<feColorMatrix in="SourceAlpha" type="matrix" values="0 0 0 0 0 0 0 0 0 0 0 0 0 0 0 0 0 0 127 0" result="hardAlpha"/>
<feOffset dx="1" dy="1"/>
<feGaussianBlur stdDeviation="2"/>
<feComposite in2="hardAlpha" operator="out"/>
<feColorMatrix type="matrix" values="0 0 0 0 0 0 0 0 0 0 0 0 0 0 0 0 0 0 0.25 0"/>
<feBlend mode="normal" in2="BackgroundImageFix" result="effect1_dropShadow_23_84"/>
<feBlend mode="normal" in="SourceGraphic" in2="effect1_dropShadow_23_84" result="shape"/>
</filter>
<filter id="filter6_d_23_84" x="142" y="252" width="10" height="11" filterUnits="userSpaceOnUse" color-interpolation-filters="sRGB">
<feFlood flood-opacity="0" result="BackgroundImageFix"/>
<feColorMatrix in="SourceAlpha" type="matrix" values="0 0 0 0 0 0 0 0 0 0 0 0 0 0 0 0 0 0 127 0" result="hardAlpha"/>
<feOffset dx="1" dy="1"/>
<feGaussianBlur stdDeviation="2"/>
<feComposite in2="hardAlpha" operator="out"/>
<feColorMatrix type="matrix" values="0 0 0 0 0 0 0 0 0 0 0 0 0 0 0 0 0 0 0.25 0"/>
<feBlend mode="normal" in2="BackgroundImageFix" result="effect1_dropShadow_23_84"/>
<feBlend mode="normal" in="SourceGraphic" in2="effect1_dropShadow_23_84" result="shape"/>
</filter>
<filter id="filter7_d_23_84" x="119" y="258" width="10" height="11" filterUnits="userSpaceOnUse" color-interpolation-filters="sRGB">
<feFlood flood-opacity="0" result="BackgroundImageFix"/>
<feColorMatrix in="SourceAlpha" type="matrix" values="0 0 0 0 0 0 0 0 0 0 0 0 0 0 0 0 0 0 127 0" result="hardAlpha"/>
<feOffset dx="1" dy="1"/>
<feGaussianBlur stdDeviation="2"/>
<feComposite in2="hardAlpha" operator="out"/>
<feColorMatrix type="matrix" values="0 0 0 0 0 0 0 0 0 0 0 0 0 0 0 0 0 0 0.25 0"/>
<feBlend mode="normal" in2="BackgroundImageFix" result="effect1_dropShadow_23_84"/>
<feBlend mode="normal" in="SourceGraphic" in2="effect1_dropShadow_23_84" result="shape"/>
</filter>
<filter id="filter8_d_23_84" x="136" y="228" width="10" height="11" filterUnits="userSpaceOnUse" color-interpolation-filters="sRGB">
<feFlood flood-opacity="0" result="BackgroundImageFix"/>
<feColorMatrix in="SourceAlpha" type="matrix" values="0 0 0 0 0 0 0 0 0 0 0 0 0 0 0 0 0 0 127 0" result="hardAlpha"/>
<feOffset dx="1" dy="1"/>
<feGaussianBlur stdDeviation="2"/>
<feComposite in2="hardAlpha" operator="out"/>
<feColorMatrix type="matrix" values="0 0 0 0 0 0 0 0 0 0 0 0 0 0 0 0 0 0 0.25 0"/>
<feBlend mode="normal" in2="BackgroundImageFix" result="effect1_dropShadow_23_84"/>
<feBlend mode="normal" in="SourceGraphic" in2="effect1_dropShadow_23_84" result="shape"/>
</filter>
<filter id="filter9_d_23_84" x="97" y="258" width="10" height="11" filterUnits="userSpaceOnUse" color-interpolation-filters="sRGB">
<feFlood flood-opacity="0" result="BackgroundImageFix"/>
<feColorMatrix in="SourceAlpha" type="matrix" values="0 0 0 0 0 0 0 0 0 0 0 0 0 0 0 0 0 0 127 0" result="hardAlpha"/>
<feOffset dx="1" dy="1"/>
<feGaussianBlur stdDeviation="2"/>
<feComposite in2="hardAlpha" operator="out"/>
<feColorMatrix type="matrix" values="0 0 0 0 0 0 0 0 0 0 0 0 0 0 0 0 0 0 0.25 0"/>
<feBlend mode="normal" in2="BackgroundImageFix" result="effect1_dropShadow_23_84"/>
<feBlend mode="normal" in="SourceGraphic" in2="effect1_dropShadow_23_84" result="shape"/>
</filter>
<filter id="filter10_d_23_84" x="117" y="241" width="10" height="11" filterUnits="userSpaceOnUse" color-interpolation-filters="sRGB">
<feFlood flood-opacity="0" result="BackgroundImageFix"/>
<feColorMatrix in="SourceAlpha" type="matrix" values="0 0 0 0 0 0 0 0 0 0 0 0 0 0 0 0 0 0 127 0" result="hardAlpha"/>
<feOffset dx="1" dy="1"/>
<feGaussianBlur stdDeviation="2"/>
<feComposite in2="hardAlpha" operator="out"/>
<feColorMatrix type="matrix" values="0 0 0 0 0 0 0 0 0 0 0 0 0 0 0 0 0 0 0.25 0"/>
<feBlend mode="normal" in2="BackgroundImageFix" result="effect1_dropShadow_23_84"/>
<feBlend mode="normal" in="SourceGraphic" in2="effect1_dropShadow_23_84" result="shape"/>
</filter>
<filter id="filter11_d_23_84" x="99" y="238" width="10" height="11" filterUnits="userSpaceOnUse" color-interpolation-filters="sRGB">
<feFlood flood-opacity="0" result="BackgroundImageFix"/>
<feColorMatrix in="SourceAlpha" type="matrix" values="0 0 0 0 0 0 0 0 0 0 0 0 0 0 0 0 0 0 127 0" result="hardAlpha"/>
<feOffset dx="1" dy="1"/>
<feGaussianBlur stdDeviation="2"/>
<feComposite in2="hardAlpha" operator="out"/>
<feColorMatrix type="matrix" values="0 0 0 0 0 0 0 0 0 0 0 0 0 0 0 0 0 0 0.25 0"/>
<feBlend mode="normal" in2="BackgroundImageFix" result="effect1_dropShadow_23_84"/>
<feBlend mode="normal" in="SourceGraphic" in2="effect1_dropShadow_23_84" result="shape"/>
</filter>
<filter id="filter12_d_23_84" x="79" y="253" width="10" height="11" filterUnits="userSpaceOnUse" color-interpolation-filters="sRGB">
<feFlood flood-opacity="0" result="BackgroundImageFix"/>
<feColorMatrix in="SourceAlpha" type="matrix" values="0 0 0 0 0 0 0 0 0 0 0 0 0 0 0 0 0 0 127 0" result="hardAlpha"/>
<feOffset dx="1" dy="1"/>
<feGaussianBlur stdDeviation="2"/>
<feComposite in2="hardAlpha" operator="out"/>
<feColorMatrix type="matrix" values="0 0 0 0 0 0 0 0 0 0 0 0 0 0 0 0 0 0 0.25 0"/>
<feBlend mode="normal" in2="BackgroundImageFix" result="effect1_dropShadow_23_84"/>
<feBlend mode="normal" in="SourceGraphic" in2="effect1_dropShadow_23_84" result="shape"/>
</filter>
<filter id="filter13_d_23_84" x="63" y="246" width="10" height="11" filterUnits="userSpaceOnUse" color-interpolation-filters="sRGB">
<feFlood flood-opacity="0" result="BackgroundImageFix"/>
<feColorMatrix in="SourceAlpha" type="matrix" values="0 0 0 0 0 0 0 0 0 0 0 0 0 0 0 0 0 0 127 0" result="hardAlpha"/>
<feOffset dx="1" dy="1"/>
<feGaussianBlur stdDeviation="2"/>
<feComposite in2="hardAlpha" operator="out"/>
<feColorMatrix type="matrix" values="0 0 0 0 0 0 0 0 0 0 0 0 0 0 0 0 0 0 0.25 0"/>
<feBlend mode="normal" in2="BackgroundImageFix" result="effect1_dropShadow_23_84"/>
<feBlend mode="normal" in="SourceGraphic" in2="effect1_dropShadow_23_84" result="shape"/>
</filter>
<filter id="filter14_d_23_84" x="83" y="229" width="10" height="11" filterUnits="userSpaceOnUse" color-interpolation-filters="sRGB">
<feFlood flood-opacity="0" result="BackgroundImageFix"/>
<feColorMatrix in="SourceAlpha" type="matrix" values="0 0 0 0 0 0 0 0 0 0 0 0 0 0 0 0 0 0 127 0" result="hardAlpha"/>
<feOffset dx="1" dy="1"/>
<feGaussianBlur stdDeviation="2"/>
<feComposite in2="hardAlpha" operator="out"/>
<feColorMatrix type="matrix" values="0 0 0 0 0 0 0 0 0 0 0 0 0 0 0 0 0 0 0.25 0"/>
<feBlend mode="normal" in2="BackgroundImageFix" result="effect1_dropShadow_23_84"/>
<feBlend mode="normal" in="SourceGraphic" in2="effect1_dropShadow_23_84" result="shape"/>
</filter>
</defs>
</svg>
