<svg width="40" height="40" viewBox="0 0 40 40" fill="none" xmlns="http://www.w3.org/2000/svg">
<g clip-path="url(#clip0_6_42)">
<path d="M24 11.5H23.5V12V23.5H16.5V12V11.5H16H11.2071L20 2.70711L28.7929 11.5H24ZM9.7152 22.5L4.46652 27.6304L3.5892 28.488H4.81602H11.904V28.4881L11.9111 28.488C11.9202 28.4878 11.9291 28.4901 11.9371 28.4945C11.9403 28.4963 11.9434 28.4984 11.9462 28.5009L13.5576 32.1997L13.6885 32.5H14.016H25.984H26.3116L26.4424 32.1997L28.0543 28.4998C28.0569 28.4976 28.0597 28.4956 28.0627 28.4939C28.0701 28.4898 28.0784 28.4878 28.0868 28.4879L28.0868 28.488H28.096H35.184H36.4111L35.5335 27.6304L30.2831 22.5H32.57H32.5707C33.2173 22.4992 33.8392 22.7484 34.3064 23.1954C35.0387 23.9116 37.4744 26.5125 38.1757 27.2613C38.2332 27.3226 38.279 27.3715 38.3113 27.406L38.3118 27.4066C39.2931 28.4499 39.6375 29.0974 39.4545 29.8427L39.4509 29.8574L39.4481 29.8722L38.3292 36.0034C38.2313 36.3797 37.967 36.75 37.5912 37.0312C37.2118 37.315 36.7528 37.482 36.314 37.482H3.69002C3.25122 37.482 2.79221 37.315 2.41281 37.0312C2.0371 36.75 1.77279 36.3798 1.67483 36.0034L0.555899 29.8722L0.553025 29.8565L0.54915 29.841C0.363513 29.097 0.70818 28.4508 1.68819 27.4066C1.74743 27.3437 1.85179 27.2325 1.98975 27.0854C2.84938 26.169 5.0136 23.862 5.69538 23.1937C6.13384 22.7671 6.76637 22.5 7.43002 22.5H9.7152Z" fill="#FF3D00" fill-opacity="0.41" stroke="#643F3F"/>
</g>
<defs>
<clipPath id="clip0_6_42">
<rect width="40" height="40" fill="white"/>
</clipPath>
</defs>
</svg>
